<svg width="64" height="64" viewBox="0 0 64 64" fill="none" xmlns="http://www.w3.org/2000/svg">
  <defs>
    <linearGradient id="blueGradient" x1="0%" y1="0%" x2="100%" y2="100%">
      <stop offset="0%" style="stop-color:#00BFFF;stop-opacity:1" />
      <stop offset="100%" style="stop-color:#007FFF;stop-opacity:1" />
    </linearGradient>
  </defs>
  <circle cx="32" cy="32" r="32" fill="url(#blueGradient)"/>

  <path d="M48 24L40 32V42L48 34V24Z" fill="#7B8FE6"/> <path d="M38 32H28V42H38V32Z" fill="#7B8FE6"/> <path d="M40 34L32 42H22V32L30 24L40 34Z" fill="#7B8FE6"/> <path d="M48 34L40 42H30V32L38 24L48 34Z" fill="#7B8FE6"/>

  <path d="M16 22L32 12L48 22L32 32L16 22Z" fill="white"/> <rect x="29" y="30" width="6" height="10" fill="white"/> <circle cx="32" cy="42" r="2.5" fill="white"/> <line x1="32" y1="36" x2="32" y2="40" stroke="white" stroke-width="2"/> <path d="M30 40C30 38.3431 31.3431 37 33 37H39C40.6569 37 42 38.3431 42 40V44C42 45.6569 40.6569 47 39 47H33C31.3431 47 30 45.6569 30 44V40Z" fill="white"/> <path d="M33 37V40H39V37C39 36.4477 38.5523 36 38 36H34C33.4477 36 33 36.4477 33 37Z" fill="#CCCCCC"/> </svg>